<?xml version="1.0" standalone="no"?>
<!DOCTYPE svg PUBLIC "-//W3C//DTD SVG 20010904//EN"
 "http://www.w3.org/TR/2001/REC-SVG-20010904/DTD/svg10.dtd">
<svg version="1.0" xmlns="http://www.w3.org/2000/svg"
 width="512.000000pt" height="512.000000pt" viewBox="0 0 512.000000 512.000000"
 preserveAspectRatio="xMidYMid meet">

<g transform="translate(0.000000,512.000000) scale(0.100000,-0.100000)"
fill="#000000" stroke="none">
<path d="M2516 5078 c-20 -23 -90 -152 -156 -287 -261 -534 -262 -536 -292
-539 -15 -2 -67 13 -115 33 -168 70 -338 133 -377 141 l-39 7 6 -99 c6 -94 24
-217 98 -694 70 -453 89 -701 54 -730 -41 -34 -183 61 -440 296 -232 211 -332
293 -382 308 -39 12 -47 -41 -40 -287 3 -132 2 -229 -4 -244 -9 -24 -13 -25
-62 -20 -28 3 -135 28 -237 55 -243 65 -344 85 -399 79 -57 -6 -83 -34 -75
-80 9 -55 94 -214 217 -406 122 -190 177 -288 177 -316 0 -22 -72 -51 -145
-59 -90 -10 -226 -35 -258 -48 -34 -13 -49 -38 -36 -60 23 -41 389 -278 754
-488 266 -153 457 -269 499 -303 48 -39 34 -62 -149 -247 -171 -173 -195 -204
-175 -224 19 -19 136 -10 395 32 397 64 728 100 965 103 l115 2 5 -449 c5
-405 7 -452 23 -481 50 -92 179 -94 232 -3 19 33 20 56 25 484 l5 449 115 -2
c237 -3 568 -39 965 -103 259 -42 376 -51 395 -32 20 20 -4 51 -175 224 -183
185 -197 208 -149 247 42 34 233 150 499 303 368 212 733 448 754 489 12 22
-2 46 -36 59 -32 13 -168 38 -258 48 -73 8 -145 37 -145 59 0 28 55 126 177
316 123 192 208 351 217 406 8 46 -18 74 -75 80 -56 6 -190 -20 -409 -82 -91
-25 -191 -48 -222 -52 -55 -6 -58 -5 -67 20 -6 15 -7 112 -4 244 7 246 -1 299
-40 287 -49 -15 -127 -79 -413 -335 -245 -220 -369 -302 -409 -269 -35 29 -16
275 54 730 74 476 92 600 98 692 6 97 6 98 -16 98 -23 0 -226 -75 -394 -145
-49 -20 -100 -35 -115 -33 -30 3 -36 15 -289 534 -113 232 -156 304 -192 323
-17 9 -25 5 -55 -31z"/>
</g>
</svg>
