<?xml version="1.0" standalone="no"?>
<!DOCTYPE svg PUBLIC "-//W3C//DTD SVG 20010904//EN"
 "http://www.w3.org/TR/2001/REC-SVG-20010904/DTD/svg10.dtd">
<svg version="1.0" xmlns="http://www.w3.org/2000/svg"
 width="512.000000pt" height="512.000000pt" viewBox="0 0 512.000000 512.000000"
 preserveAspectRatio="xMidYMid meet">
<metadata>
Created by potrace 1.14, written by Peter Selinger 2001-2017
</metadata>
<g transform="translate(0.000000,512.000000) scale(0.100000,-0.100000)"
fill="#000000" stroke="none">
<path d="M2521 5090 c-16 -17 -46 -63 -67 -103 -20 -40 -41 -73 -46 -75 -4 -2
-8 -12 -8 -23 0 -11 -6 -22 -13 -25 -7 -2 -14 -14 -14 -27 -1 -12 -7 -23 -13
-25 -5 -2 -10 -8 -10 -14 0 -6 -16 -44 -35 -85 -19 -41 -35 -79 -35 -84 0 -5
-4 -9 -10 -9 -5 0 -10 -9 -10 -20 0 -11 -5 -20 -10 -20 -6 0 -9 -3 -8 -7 2
-10 -10 -43 -23 -63 -5 -8 -14 -27 -20 -42 -6 -15 -32 -69 -58 -120 l-48 -93
-37 2 c-20 1 -89 25 -154 52 -64 27 -130 55 -147 62 -16 7 -34 13 -40 14 -5 0
-15 4 -21 7 -24 15 -101 38 -130 38 -30 0 -30 0 -29 -52 0 -29 4 -59 8 -65 5
-8 3 -13 -3 -13 -7 0 -8 -6 -2 -17 5 -10 8 -26 7 -35 -2 -10 0 -20 3 -22 4 -2
7 -25 7 -50 0 -25 2 -46 6 -46 3 0 6 -6 6 -12 1 -22 12 -112 19 -143 3 -16 7
-46 9 -65 1 -19 5 -42 8 -50 3 -8 8 -37 11 -65 3 -27 8 -60 10 -72 3 -11 7
-43 11 -70 4 -26 13 -84 20 -128 15 -88 23 -143 31 -225 3 -30 9 -73 13 -95 4
-22 8 -92 10 -156 3 -134 -6 -154 -59 -139 -28 8 -131 71 -158 97 -8 8 -30 26
-50 41 -20 15 -51 41 -68 57 -18 17 -52 47 -76 67 -67 57 -88 78 -88 88 0 6
-6 10 -14 10 -8 0 -16 3 -18 8 -1 4 -41 40 -88 81 -47 41 -86 78 -88 83 -2 4
-8 8 -13 8 -6 0 -27 13 -47 29 -20 16 -51 32 -68 36 -31 6 -31 5 -41 -42 -5
-26 -8 -91 -7 -143 9 -359 9 -351 -6 -361 -20 -12 -105 -3 -177 20 -32 10 -71
22 -88 26 -16 5 -34 9 -40 11 -76 23 -246 64 -267 64 -16 0 -28 3 -28 8 0 4
-18 6 -41 6 -144 -6 -158 -45 -76 -214 17 -36 34 -67 37 -70 3 -3 12 -18 20
-35 8 -16 25 -44 37 -61 13 -17 23 -34 23 -37 0 -4 13 -26 29 -49 74 -109 135
-207 168 -270 34 -66 35 -70 18 -88 -15 -17 -92 -39 -135 -38 -8 0 -26 -3 -40
-6 -13 -3 -42 -8 -65 -11 -22 -3 -47 -8 -55 -10 -8 -2 -30 -7 -47 -10 -42 -7
-87 -35 -91 -56 -2 -15 35 -52 113 -112 46 -35 354 -227 365 -227 6 0 10 -4
10 -10 0 -5 7 -10 15 -10 8 0 15 -3 15 -8 0 -7 9 -13 66 -42 16 -8 35 -20 42
-27 7 -7 18 -13 24 -13 6 0 19 -6 27 -14 9 -7 41 -27 71 -43 65 -36 124 -69
165 -94 17 -10 48 -28 69 -40 22 -12 46 -28 54 -35 7 -8 18 -12 23 -9 5 4 9 1
9 -4 0 -6 4 -11 9 -11 9 0 28 -11 153 -94 26 -17 50 -37 53 -45 9 -22 -38 -91
-107 -156 -34 -33 -61 -63 -60 -67 1 -5 -2 -8 -8 -8 -14 0 -156 -141 -153
-151 2 -5 -1 -9 -6 -9 -16 0 -23 -40 -11 -55 21 -26 73 -21 455 41 140 23 184
29 275 39 36 4 76 9 90 11 14 3 50 7 80 10 30 2 78 7 105 9 100 10 202 17 275
20 41 1 75 3 75 5 0 1 12 3 28 4 15 1 27 -1 27 -5 0 -4 15 -6 33 -5 l32 1 2
-435 c0 -239 2 -437 3 -440 1 -3 3 -14 5 -24 2 -11 20 -35 39 -55 31 -31 41
-35 89 -35 30 -1 65 5 79 12 24 13 59 62 66 92 2 8 4 212 4 453 1 409 3 438
19 434 9 -3 23 -1 30 4 7 4 17 5 22 2 6 -3 62 -8 126 -10 105 -3 206 -9 206
-13 0 0 29 -3 65 -6 75 -5 150 -12 200 -18 19 -2 55 -7 80 -9 25 -3 61 -8 80
-11 19 -3 51 -8 70 -11 83 -12 166 -25 185 -29 20 -4 70 -12 139 -22 21 -3 48
-8 60 -10 67 -14 172 -15 189 -2 31 24 6 60 -151 216 -157 155 -191 196 -186
225 3 19 39 53 67 62 9 4 17 10 17 15 0 4 11 11 25 14 14 4 25 11 25 16 0 6 7
10 15 10 8 0 15 5 15 12 0 6 3 9 6 5 4 -3 26 7 49 23 23 16 48 30 55 32 7 2
22 11 32 21 10 10 23 15 28 12 6 -4 10 -2 10 4 0 5 13 16 29 24 47 24 336 191
341 198 3 3 26 18 52 32 25 14 63 36 85 50 21 13 42 24 47 25 5 0 12 4 15 9 8
11 69 53 76 53 4 0 21 11 39 25 18 14 36 25 39 25 11 0 141 93 180 129 20 19
37 42 37 51 0 24 -66 54 -141 66 -19 2 -50 7 -69 10 -19 3 -48 7 -65 10 -102
14 -143 25 -159 43 -15 16 -15 21 0 57 18 44 182 305 198 316 6 4 7 8 3 8 -4
0 3 15 17 33 14 19 23 37 19 40 -3 4 -1 7 5 7 11 0 64 92 61 106 0 4 4 10 9
13 18 11 64 126 67 165 4 59 -33 85 -107 76 -27 -3 -48 -2 -48 3 0 5 -6 4 -14
-2 -7 -6 -31 -13 -52 -16 -22 -2 -66 -12 -99 -21 -33 -9 -67 -18 -75 -19 -8
-2 -15 -4 -15 -5 0 -1 -7 -3 -15 -5 -8 -2 -64 -17 -123 -34 -127 -36 -196 -46
-217 -32 -12 9 -14 34 -11 148 9 320 2 403 -36 403 -18 0 -104 -57 -155 -102
-20 -18 -51 -44 -68 -58 -17 -14 -60 -53 -95 -87 -36 -34 -65 -60 -65 -57 0 2
-15 -11 -34 -29 -66 -63 -102 -94 -176 -152 -41 -33 -76 -63 -78 -67 -2 -5
-10 -8 -18 -8 -8 0 -14 -4 -14 -9 0 -13 -90 -49 -111 -44 -11 3 -22 16 -25 30
-6 23 1 230 10 298 2 17 7 55 10 85 8 61 14 103 21 140 2 14 7 43 10 65 3 23
8 52 10 65 3 14 8 45 11 70 3 25 8 54 10 65 2 10 6 37 10 60 7 45 12 70 14 70
1 0 3 20 5 45 2 25 7 61 11 80 4 19 7 47 7 63 -1 15 2 27 6 27 3 0 7 15 8 33
1 17 4 48 7 67 33 235 27 288 -29 260 -3 -1 -8 -3 -12 -5 -56 -15 -73 -20
-103 -33 -19 -9 -39 -17 -45 -18 -5 -1 -69 -27 -140 -57 -154 -65 -196 -75
-214 -53 -8 9 -10 16 -5 16 5 0 5 4 -1 8 -14 10 -205 403 -205 422 0 4 -6 13
-14 20 -8 6 -12 18 -9 26 3 8 1 14 -4 14 -6 0 -16 18 -23 40 -7 22 -17 40 -22
40 -4 0 -8 9 -8 20 0 11 -3 20 -8 20 -4 0 -18 25 -32 55 -14 30 -28 55 -32 55
-5 0 -8 7 -8 15 0 8 -4 15 -10 15 -5 0 -10 6 -10 14 0 15 -56 76 -70 76 -5 0
-23 -14 -39 -30z"/>
</g>
</svg>
